<svg xmlns="http://www.w3.org/2000/svg" viewBox="0 0 213.04 213.67"><defs><style>.cls-1{fill:#fff;}.cls-2{fill:#6e6e6e;}</style></defs><g id="Capa_2" data-name="Capa 2"><g id="Capa_1-2" data-name="Capa 1"><path class="cls-1" d="M101.45,207.69c-1.09-13.86-2.75-27.71-3.17-41.59C97.92,154,102,144,113.7,137.7c6.3-3.37,11.3-9.11,17.06-13.56,6.93-5.36,13.84-10.77,21.15-15.58,3.79-2.51,4.05-4.53,1.56-7.91-3.29-4.49-7.05-6.23-12.53-4.4-8.47,2.84-16.69,6.41-25.17,9.21-11.25,3.7-20-1.16-23.64-12.45-.94-2.91,0-4.31,2.6-5.39,13.74-5.77,27.56-7.56,42.17-2.87,6.19,2,13,2.26,19.56,2.82a10.42,10.42,0,0,0,7-1.87,10.17,10.17,0,0,0,3.1-6.7c.06-1.42-2.19-3.69-3.87-4.33-12.57-4.71-25.4-8.75-37.84-13.77-6.59-2.67-12.34-.62-18.36.86-8.69,2.13-17.32,4.51-26,6.71a13.35,13.35,0,0,1-3.1,0c-.06-.51-.13-1-.19-1.53,9.7-3.21,19.72-5.69,29-9.82,9.59-4.27,17.63-.81,26.09,2.47,9,3.47,18,6.71,26.95,10.27,4.15,1.66,8.1,3.85,12.59,6,2.45-3.31.14-5.12-3.28-6.58C155.31,63.64,141.68,58.67,128.93,52c-11.49-6-21.53-5.55-32.52.86-9.28,5.4-19.2,9.78-29.1,14-6.29,2.67-9,7.1-9.91,13.47-2.77,18.51-5.95,37-8.5,55.52-.59,4.29.44,8.88,1.16,13.27,2.68,16.34,5.55,32.65,8.3,49a13.54,13.54,0,0,1-.33,3.38,101.71,101.71,0,0,0,74.49,8.74,121.23,121.23,0,0,1-24.42,3.33C103.51,213.73,101.77,211.85,101.45,207.69Z"/><path class="cls-2" d="M184.16,178.91a99.45,99.45,0,0,1-51.64,31.32,121.23,121.23,0,0,1-24.42,3.33c-4.59.17-6.33-1.71-6.65-5.87-1.09-13.86-2.75-27.71-3.17-41.59C97.92,154,102,144,113.7,137.7c6.3-3.37,11.3-9.11,17.06-13.56,6.93-5.36,13.84-10.77,21.15-15.58,3.79-2.51,4.05-4.53,1.56-7.91-3.29-4.49-7.05-6.23-12.53-4.4-8.47,2.84-16.69,6.41-25.17,9.21-11.25,3.7-20-1.16-23.64-12.45-.94-2.91,0-4.31,2.6-5.39,13.74-5.77,27.56-7.56,42.17-2.87,6.19,2,13,2.26,19.56,2.82a10.42,10.42,0,0,0,7-1.87,10.17,10.17,0,0,0,3.1-6.7c.06-1.42-2.19-3.69-3.87-4.33-12.57-4.71-25.4-8.75-37.84-13.77-6.59-2.67-12.34-.62-18.36.86-8.69,2.13-17.32,4.51-26,6.71a13.35,13.35,0,0,1-3.1,0c-.06-.51-.13-1-.19-1.53,9.7-3.21,19.72-5.69,29-9.82,9.59-4.27,17.63-.81,26.09,2.47,9,3.47,18,6.71,26.95,10.27,4.15,1.66,8.1,3.85,12.59,6,2.45-3.31.14-5.12-3.28-6.58C155.31,63.64,141.68,58.67,128.93,52c-11.49-6-21.53-5.55-32.52.86-9.28,5.4-19.2,9.78-29.1,14-6.29,2.67-9,7.1-9.91,13.47-2.77,18.51-5.95,37-8.5,55.52-.59,4.29.44,8.88,1.16,13.27,2.68,16.34,5.55,32.65,8.3,49a13.54,13.54,0,0,1-.33,3.38c0,.26-.06.53-.1.83-6.44-4.33-12.52-7.66-17.74-12C9.65,164.69-3.59,131.86.83,92.29,5.39,51.41,37.59,14.9,77.56,3.94c52.73-14.46,106.38,12,126.43,61.2C220.89,106.62,214,145.23,184.16,178.91Z"/></g></g></svg>