<svg xmlns="http://www.w3.org/2000/svg" viewBox="0 0 213.04 213.57"><defs><style>.cls-1{fill:#6e6e6e;}</style></defs><g id="Capa_2" data-name="Capa 2"><g id="Capa_1-2" data-name="Capa 1"><path class="cls-1" d="M77.2,67l.19,1.53a13.35,13.35,0,0,0,3.1,0c8.67-2.2,17.3-4.58,26-6.71,6-1.48,11.77-3.53,18.36-.86,12.44,5,25.27,9.06,37.84,13.77,1.68.64,3.93,2.91,3.87,4.33a10.17,10.17,0,0,1-3.1,6.7,10.42,10.42,0,0,1-7,1.87c-6.57-.56-13.37-.83-19.56-2.82-14.61-4.69-28.43-2.9-42.17,2.87-2.56,1.08-3.54,2.48-2.6,5.39,3.65,11.29,12.39,16.15,23.64,12.45,8.48-2.8,16.7-6.37,25.17-9.21,5.48-1.83,9.24-.09,12.53,4.4,2.49,3.38,2.23,5.4-1.56,7.91-7.31,4.81-14.22,10.22-21.15,15.58C125,128.59,120,134.33,113.7,137.7,102,144,97.92,154,98.28,166.1c.42,13.88,2.08,27.73,3.17,41.59.32,4.16,2.06,6,6.65,5.87,30.15-1.14,56-12,76.06-34.65C214,145.23,220.89,106.62,204,65.14c-20.05-49.21-73.7-75.66-126.43-61.2C37.59,14.9,5.39,51.41.83,92.29c-4.42,39.57,8.82,72.4,39.36,98,5.22,4.37,11.3,7.7,17.74,12,.26-2.37.58-3.33.43-4.21-2.75-16.34-5.62-32.65-8.3-49-.72-4.39-1.75-9-1.16-13.27,2.55-18.55,5.73-37,8.5-55.52,1-6.37,3.62-10.8,9.91-13.47,9.9-4.21,19.82-8.59,29.1-14,11-6.41,21-6.87,32.52-.86,12.75,6.66,26.38,11.63,39.63,17.32,3.42,1.46,5.73,3.27,3.28,6.58-4.49-2.17-8.44-4.36-12.59-6-8.93-3.56-18-6.8-26.95-10.27-8.46-3.28-16.5-6.74-26.09-2.47C96.92,61.28,86.9,63.76,77.2,67Z"/><path class="cls-1" d="M77.2,67c9.7-3.21,19.72-5.69,29-9.82,9.59-4.27,17.63-.81,26.09,2.47,9,3.47,18,6.71,26.95,10.27,4.15,1.66,8.1,3.85,12.59,6,2.45-3.31.14-5.12-3.28-6.58C155.31,63.64,141.68,58.67,128.93,52c-11.49-6-21.53-5.55-32.52.86-9.28,5.4-19.2,9.78-29.1,14-6.29,2.67-9,7.1-9.91,13.47-2.77,18.51-5.95,37-8.5,55.52-.59,4.29.44,8.88,1.16,13.27,2.68,16.34,5.55,32.65,8.3,49,.15.88-.17,1.84-.43,4.21-6.44-4.33-12.52-7.66-17.74-12C9.65,164.69-3.59,131.86.83,92.29,5.39,51.41,37.59,14.9,77.56,3.94c52.73-14.46,106.38,12,126.43,61.2,16.9,41.48,10,80.09-19.83,113.77-20.07,22.62-45.91,33.51-76.06,34.65-4.59.17-6.33-1.71-6.65-5.87-1.09-13.86-2.75-27.71-3.17-41.59C97.92,154,102,144,113.7,137.7c6.3-3.37,11.3-9.11,17.06-13.56,6.93-5.36,13.84-10.77,21.15-15.58,3.79-2.51,4.05-4.53,1.56-7.91-3.29-4.49-7.05-6.23-12.53-4.4-8.47,2.84-16.69,6.41-25.17,9.21-11.25,3.7-20-1.16-23.64-12.45-.94-2.91,0-4.31,2.6-5.39,13.74-5.77,27.56-7.56,42.17-2.87,6.19,2,13,2.26,19.56,2.82a10.42,10.42,0,0,0,7-1.87,10.17,10.17,0,0,0,3.1-6.7c.06-1.42-2.19-3.69-3.87-4.33-12.57-4.71-25.4-8.75-37.84-13.77-6.59-2.67-12.34-.62-18.36.86-8.69,2.13-17.32,4.51-26,6.71a13.35,13.35,0,0,1-3.1,0Z"/></g></g></svg>