<svg xmlns="http://www.w3.org/2000/svg" viewBox="0 0 214.05 214.88"><defs><style>.cls-1{fill:#fff;}.cls-2{fill:#6e6e6e;}</style></defs><g id="Capa_2" data-name="Capa 2"><g id="Capa_1-2" data-name="Capa 1"><circle class="cls-1" cx="106.71" cy="106.65" r="106.41"/><path class="cls-2" d="M6.8,71.43c20.86,11.82,38.69,25.36,45.74,48.91,1.71,5.68,5.45,9.56,10,13.17,10,7.91,19.72,16.2,29.49,24.42,4.74,4,7.41,3.24,9.24-2.66a12.49,12.49,0,0,0-3.12-12.9c-6-6.39-12.32-12.47-18.51-18.67a5.24,5.24,0,0,1-1.77-3c1.59.3,3.34.26,4.74.94,11.58,5.65,23.31,11.06,34.59,17.29,10.35,5.71,20.55,11.48,32.59,12.73,1.46.16,3.25.56,4.37-.07,2-1.11,4.74-2.75,5-4.48a7.8,7.8,0,0,0-2.95-6.37c-11.79-7.4-23.87-14.34-35.83-21.47-2.18-1.3-4.21-2.84-6.31-4.26l.85-1.58c2.16,1,4.36,2,6.45,3.17,11.47,6.31,22.87,12.75,34.39,19,5.14,2.78,10.54,5.21,16.58,2.8a12.65,12.65,0,0,0,4.5-2.85c3.44-3.66,3.15-5.72-1.23-8.09-16.48-8.89-33-17.65-49.53-26.52-2.22-1.19-5.59-2-4.17-5.68L164.34,117c2.36,1.22,4.74,2.38,7.07,3.66s4.75,1.87,6.29-1.16c1.41-2.78,1.59-5.5-1.47-7.38-8.07-4.93-16.2-9.75-24.26-14.69-7.2-4.41-14.32-9-21.54-13.38-2.65-1.63-3.65-3.57-2.55-5.92,3.76,2.63,7.19,5.43,11,7.61,10.2,5.87,20.49,11.59,30.9,17.07,1.38.73,3.65-.24,5.51-.43-.57-1.8-.57-4.41-1.8-5.27C159,87.11,144.62,77,129.78,67.62c-14.15-9-30.42-13.05-46.26-17.73C68.77,45.53,55.31,39.4,44.21,28.59c-4.5-4.39-4.43-4.68.67-8.4C63.91,6.33,85.35-.67,108.69.05,147.52,1.24,177.63,19,198.16,51.79c15.39,24.57,19.47,51.78,12.81,79.91-6.47,27.3-21.41,49.36-45.14,65C140.91,213,113.56,218.82,84.59,212.2c-35.72-8.17-61.4-29.54-76-63.41-10.09-23.41-11.08-47.51-4.08-72A48.36,48.36,0,0,1,6.8,71.43Z"/></g></g></svg>