<svg xmlns="http://www.w3.org/2000/svg" viewBox="0 0 213.1 214.07"><defs><style>.cls-1{fill:#fff;}.cls-2{fill:#6e6e6e;}</style></defs><g id="Capa_2" data-name="Capa 2"><g id="Capa_1-2" data-name="Capa 1"><path class="cls-1" d="M141.09,39.86c-6.85,8.76-16.35,10.72-26.78,11.61C96.61,53,79.19,56.27,62.49,62.68c-6,2.31-9.65,6.67-10.15,12.93-1.05,13.22-1.61,26.48-2.41,39.72-.21,3.51.88,6.11,5.27,7.55,1.93-12.76,3.82-25.25,5.72-37.73l2,.2a19,19,0,0,1,.34,3.58C62,102.46,60.76,116,59.16,129.5c-.59,5,1.58,8.27,5.06,11.13,2.7,2.21,4.14,1.31,4.55-2,1.36-10.86,2.71-21.71,4.15-32.55.31-2.28,1-4.51,1.51-6.76l1.93.25c0,1.29.09,2.59,0,3.88-1.11,13-2.39,26.07-3.31,39.13-.56,7.85,3,11.4,11.37,12,1.86-14.82,2.53-29.82,5.29-44.51l1.88.16c0,3.34.13,6.69,0,10-.41,8.45-1.11,16.88-1.39,25.32a12.69,12.69,0,0,0,13.39,13.47c4.31-.18,8.62-1.89,12.79-3.35,2.12-.74,3.79-2.73,5.89-3.66,9.74-4.32,12.17-12.76,11.66-22.09-.22-4.08-3-8-4.73-12.12-7.17,4.46-10.77,9.09-4.3,16.74l-1.67-.09-3.2-3.35-8.46,10.76-2.08-1c7.54-8.35,6.59-18.17,4.92-28.12l1.83-.11,3.25,8.57,8.75-8.08c3.38,4.48,7.71,9.09,10.53,14.49,1.22,2.35-.89,6.31-1.1,9.57-.56,8.82-5,14.62-12.94,18.29-4.16,1.93-8,4.57-12,6.88.25.6.49,1.19.74,1.78a31.68,31.68,0,0,0,4.81-.91c9.85-3.46,19.7-6.9,29.43-10.64a10.14,10.14,0,0,0,4.63-4.12c3.75-6.25,8-12.41,10.47-19.17,2.07-5.59,2.46-12,2.63-18,.16-5.42,1.91-9.63,5.89-13.08Q186.55,85,201.82,71.9a28.94,28.94,0,0,1,3.51-2.27,106.71,106.71,0,0,0-41-51.21c-6.55,6.09-13,12.14-19.54,18.17C143.61,37.72,142.09,38.58,141.09,39.86Z"/><path class="cls-2" d="M171.49,191.47c-31.06,23.71-69,28.35-102,15.85a110.19,110.19,0,0,1-48.35-36.4c-28.92-37.68-27.52-91,0-128.18a104.33,104.33,0,0,1,18.11-19C82-10.89,138-3.14,164.4,18.38l0,0c-6.55,6.09-13,12.14-19.54,18.17-1.21,1.13-2.73,2-3.73,3.27-6.85,8.76-16.35,10.72-26.78,11.61C96.61,53,79.19,56.27,62.49,62.68c-6,2.31-9.65,6.67-10.15,12.93-1.05,13.22-1.61,26.48-2.41,39.72-.21,3.51.88,6.11,5.27,7.55,1.93-12.76,3.82-25.25,5.72-37.73l2,.2a19,19,0,0,1,.34,3.58C62,102.46,60.76,116,59.16,129.5c-.59,5,1.58,8.27,5.06,11.13,2.7,2.21,4.14,1.31,4.55-2,1.36-10.86,2.71-21.71,4.15-32.55.31-2.28,1-4.51,1.51-6.76l1.93.25c0,1.29.09,2.59,0,3.88-1.11,13-2.39,26.07-3.31,39.13-.56,7.85,3,11.4,11.37,12,1.86-14.82,2.53-29.82,5.29-44.51l1.88.16c0,3.34.13,6.69,0,10-.41,8.45-1.11,16.88-1.39,25.32a12.69,12.69,0,0,0,13.39,13.47c4.31-.18,8.62-1.89,12.79-3.35,2.12-.74,3.79-2.73,5.89-3.66,9.74-4.32,12.17-12.76,11.66-22.09-.22-4.08-3-8-4.73-12.12-7.17,4.46-10.77,9.09-4.3,16.74l-1.67-.09-3.2-3.35-8.46,10.76-2.08-1c7.54-8.35,6.59-18.17,4.92-28.12l1.83-.11,3.25,8.57,8.75-8.08c3.38,4.48,7.71,9.09,10.53,14.49,1.22,2.35-.89,6.31-1.1,9.57-.56,8.82-5,14.62-12.94,18.29-4.16,1.93-8,4.57-12,6.88.25.6.49,1.19.74,1.78a31.68,31.68,0,0,0,4.81-.91c9.85-3.46,19.7-6.9,29.43-10.64a10.14,10.14,0,0,0,4.63-4.12c3.75-6.25,8-12.41,10.47-19.17,2.07-5.59,2.46-12,2.63-18,.16-5.42,1.91-9.63,5.89-13.08Q186.55,85,201.82,71.9a28.94,28.94,0,0,1,3.51-2.27l.15-.09C220.81,102.65,214.71,158.48,171.49,191.47Z"/></g></g></svg>