<svg xmlns="http://www.w3.org/2000/svg" viewBox="0 0 213.1 214.07"><defs><style>.cls-1{fill:#6e6e6e;}</style></defs><g id="Capa_2" data-name="Capa 2"><g id="Capa_1-2" data-name="Capa 1"><path class="cls-1" d="M205.48,69.54a31.89,31.89,0,0,0-3.66,2.36Q186.54,85,171.32,98.22c-4,3.45-5.73,7.66-5.89,13.08-.17,6.07-.56,12.46-2.63,18-2.49,6.76-6.72,12.92-10.47,19.17a10.14,10.14,0,0,1-4.63,4.12c-9.73,3.74-19.58,7.18-29.42,10.64a32,32,0,0,1-4.82.91l-.74-1.78c4-2.31,7.81-4.95,12-6.88,7.92-3.67,12.38-9.47,12.94-18.29.21-3.26,2.33-7.22,1.1-9.57-2.82-5.4-7.15-10-10.53-14.49l-8.75,8.08c-1.35-3.58-2.3-6.07-3.25-8.57l-1.83.11c1.67,10,2.62,19.77-4.92,28.12l2.08,1L120,131.14l3.2,3.35,1.67.09c-6.47-7.65-2.87-12.28,4.3-16.74,1.69,4.11,4.51,8,4.73,12.12.51,9.33-1.92,17.77-11.66,22.09-2.1.93-3.76,2.92-5.89,3.66-4.17,1.46-8.48,3.17-12.79,3.35a12.69,12.69,0,0,1-13.39-13.47c.28-8.44,1-16.87,1.39-25.32.17-3.33,0-6.68,0-10l-1.88-.16c-2.75,14.69-3.43,29.69-5.28,44.51-8.33-.6-11.94-4.15-11.38-12,.92-13.06,2.2-26.09,3.31-39.13.11-1.29,0-2.59,0-3.88l-1.93-.25c-.51,2.25-1.2,4.48-1.5,6.76-1.45,10.84-2.8,21.69-4.16,32.55-.41,3.29-1.85,4.19-4.55,2-3.48-2.86-5.65-6.12-5.06-11.13,1.6-13.5,2.79-27,4.08-40.57a18.23,18.23,0,0,0-.34-3.58l-2-.2c-1.89,12.48-3.79,25-5.72,37.73-4.38-1.44-5.48-4-5.27-7.55.8-13.24,1.36-26.5,2.41-39.72.5-6.26,4.11-10.62,10.15-12.93,16.7-6.41,34.12-9.69,51.82-11.21,10.43-.89,19.93-2.85,26.78-11.61,1-1.28,2.52-2.14,3.73-3.27,6.52-6,13-12.1,19.58-18.21C138-3.14,82-10.89,39.27,23.77c-44,35.75-52.42,102.43-18.09,147.15,37,48.15,102,57.45,150.32,20.55C214.71,158.48,220.81,102.65,205.48,69.54Z"/><path class="cls-1" d="M205.48,69.54c15.33,33.11,9.23,88.94-34,121.93-48.34,36.9-113.37,27.6-150.32-20.55C-13.15,126.2-4.77,59.52,39.27,23.77,82-10.89,138-3.14,164.4,18.38c-6.56,6.11-13.06,12.17-19.58,18.21-1.21,1.13-2.73,2-3.73,3.27-6.85,8.76-16.35,10.72-26.78,11.61C96.61,53,79.19,56.27,62.49,62.68c-6,2.31-9.65,6.67-10.15,12.93-1.05,13.22-1.61,26.48-2.41,39.72-.21,3.51.89,6.11,5.27,7.55,1.93-12.76,3.83-25.25,5.72-37.73l2,.2a18.23,18.23,0,0,1,.34,3.58C62,102.46,60.76,116,59.16,129.5c-.59,5,1.58,8.27,5.06,11.13,2.7,2.21,4.14,1.31,4.55-2,1.36-10.86,2.71-21.71,4.16-32.55.3-2.28,1-4.51,1.5-6.76l1.93.25c0,1.29.1,2.59,0,3.88-1.11,13-2.39,26.07-3.31,39.13-.56,7.85,3,11.4,11.38,12,1.85-14.82,2.53-29.82,5.28-44.51l1.88.16c0,3.34.14,6.69,0,10-.41,8.45-1.11,16.88-1.39,25.32a12.69,12.69,0,0,0,13.39,13.47c4.31-.18,8.62-1.89,12.79-3.35,2.13-.74,3.79-2.73,5.89-3.66,9.74-4.32,12.17-12.76,11.66-22.09-.22-4.08-3-8-4.73-12.12-7.17,4.46-10.77,9.09-4.3,16.74l-1.67-.09-3.2-3.35-8.46,10.76-2.08-1c7.54-8.35,6.59-18.17,4.92-28.12l1.83-.11c1,2.5,1.9,5,3.25,8.57l8.75-8.08c3.38,4.48,7.71,9.09,10.53,14.49,1.23,2.35-.89,6.31-1.1,9.57-.56,8.82-5,14.62-12.94,18.29-4.16,1.93-8,4.57-12,6.88l.74,1.78a32,32,0,0,0,4.82-.91c9.84-3.46,19.69-6.9,29.42-10.64a10.14,10.14,0,0,0,4.63-4.12c3.75-6.25,8-12.41,10.47-19.17,2.07-5.59,2.46-12,2.63-18,.16-5.42,1.91-9.63,5.89-13.08Q186.56,85,201.82,71.9A31.89,31.89,0,0,1,205.48,69.54Z"/></g></g></svg>