<svg xmlns="http://www.w3.org/2000/svg" viewBox="0 0 213.34 210.85"><defs><style>.cls-1{fill:#6e6e6e;}</style></defs><g id="Capa_2" data-name="Capa 2"><g id="Capa_1-2" data-name="Capa 1"><path class="cls-1" d="M141,109.05c.24-3.33.3-6.16.72-8.94.22-1.43,1.12-2.74,1.64-4.14,3.21-8.68,6.35-17.39,9.61-26.06,1.15-3.07,3.15-5.25,6.8-4.08,3.29,1.06,4.05,3.5,3.23,6.74-.9,3.53-1.65,7.11-2.31,10.69-3.45,18.58-7.32,37.09-10.11,55.76-1.78,12-4.24,23.54-11.4,33.44-4.08,5.63-5.16,11.77-5.18,18.28,0,4.63.76,9.26.9,13.89s2.22,5.38,6.11,3.88c37.25-14.34,61.87-40.38,69.82-79.71,8.43-41.72-4.56-77.18-37.11-104.56C132.71-10.27,71.51-7.5,33,29.78c-36.52,35.36-43.6,90.43-16.92,133.63,14.56,23.58,35.48,39,62,46.89,4.74,1.4,6.17.25,5.94-4.6-.15-3.14-.17-6.3-.38-9.44-.68-10.06-1-20-8.37-28.38-8.12-9.15-15-19.38-23.14-28.53-5.79-6.52-12.72-12-19.13-18-3.62-3.37-3.54-5.75,1.17-7.08,3.5-1,8.1-1.1,11.26.4,9,4.23,17.39,9.61,26.15,14.31s13,2,12.92-7.63c-.22-20.22-.56-40.45-.8-60.67A88.83,88.83,0,0,1,84,49.24c.46-3.94,3.14-6.15,7.1-6.39s4.84,2.8,5.27,5.89c.46,3.28.82,6.58,1.1,9.88.83,9.91,1.57,19.82,2.4,29.73.42,4.89,3.11,10.25-3,14l8.44-1.66c-.79-4-1.78-7.57-2.14-11.18Q100.79,66.74,98.84,44c-.37-4.36,2.56-8.46,5.92-8.6,4.7-.18,6.22,3.14,6.69,7.08,1.11,9.21,2.1,18.44,3.16,27.65,1,8.23,1.79,16.48,3.08,24.66.27,1.76,2.1,4.25,3.59,4.54s3.93-1.59,4.73-3.15c1.72-3.36,2.7-7.1,3.9-10.72,3.8-11.48,7.51-23,11.35-34.46,1.41-4.19,4.68-5.6,8.7-4.45,3.83,1.08,5.68,3.94,5,8a41.12,41.12,0,0,1-1.72,6.74c-3.58,10.14-6.89,20.4-11.06,30.29-2.09,5-1.73,11.71-9.27,13.9ZM111.4,169.57c4.85-10.25,4.89-19.9-2.27-28.66-5-6.06-12.14-9.74-16.79-8.69C108,140.06,114.25,152.45,111.4,169.57Z"/><path class="cls-1" d="M141,109.05l-8.13-3.6c7.54-2.19,7.18-9,9.27-13.9,4.17-9.89,7.48-20.15,11.06-30.29a41.12,41.12,0,0,0,1.72-6.74c.71-4.07-1.14-6.93-5-8-4-1.15-7.29.26-8.7,4.45-3.84,11.47-7.55,23-11.35,34.46-1.2,3.62-2.18,7.36-3.9,10.72-.8,1.56-3.36,3.42-4.73,3.15s-3.32-2.78-3.59-4.54c-1.29-8.18-2.12-16.43-3.08-24.66-1.06-9.21-2-18.44-3.16-27.65-.47-3.94-2-7.26-6.69-7.08-3.36.14-6.29,4.24-5.92,8.6q1.92,22.77,4.27,45.5c.36,3.61,1.35,7.16,2.14,11.18l-8.44,1.66c6.13-3.7,3.44-9.06,3-14-.83-9.91-1.57-19.82-2.4-29.73-.28-3.3-.64-6.6-1.1-9.88-.43-3.09-1.19-6.14-5.27-5.89S84.42,45.3,84,49.24a88.83,88.83,0,0,0-.24,11.43c.24,20.22.58,40.45.8,60.67.1,9.6-4.31,12.24-12.92,7.63s-17.18-10.08-26.15-14.31c-3.16-1.5-7.76-1.38-11.26-.4-4.71,1.33-4.79,3.71-1.17,7.08,6.41,6,13.34,11.49,19.13,18,8.12,9.15,15,19.38,23.14,28.53,7.42,8.36,7.69,18.32,8.37,28.38.21,3.14.23,6.3.38,9.44.23,4.85-1.2,6-5.94,4.6-26.53-7.87-47.45-23.31-62-46.89C-10.59,120.21-3.51,65.14,33,29.78c38.5-37.28,99.7-40,140.72-5.54,32.55,27.38,45.54,62.84,37.11,104.56-8,39.33-32.57,65.37-69.82,79.71-3.89,1.5-6,.67-6.11-3.88s-.91-9.26-.9-13.89c0-6.51,1.1-12.65,5.18-18.28,7.16-9.9,9.62-21.46,11.4-33.44,2.79-18.67,6.66-37.18,10.11-55.76.66-3.58,1.41-7.16,2.31-10.69.82-3.24.06-5.68-3.23-6.74-3.65-1.17-5.65,1-6.8,4.08-3.26,8.67-6.4,17.38-9.61,26.06-.52,1.4-1.42,2.71-1.64,4.14C141.31,102.89,141.25,105.72,141,109.05Z"/><path class="cls-1" d="M111.4,169.57c2.85-17.12-3.42-29.51-19.06-37.35,4.65-1.05,11.83,2.63,16.79,8.69C116.29,149.67,116.25,159.32,111.4,169.57Z"/></g></g></svg>