<svg xmlns="http://www.w3.org/2000/svg" viewBox="0 0 214.01 213.8"><defs><style>.cls-1{fill:#fff;}.cls-2{fill:#6e6e6e;}</style></defs><g id="Capa_2" data-name="Capa 2"><g id="Capa_1-2" data-name="Capa 1"><path class="cls-1" d="M135.57,204.62c-.14-4.63-.9-9.26-.89-13.89,0-6.51,1.1-12.65,5.17-18.28,7.16-9.9,9.62-21.46,11.41-33.44,2.79-18.67,6.65-37.18,10.1-55.76.67-3.58,1.42-7.16,2.31-10.69.83-3.24.06-5.68-3.22-6.74-3.65-1.17-5.65,1-6.81,4.08-3.25,8.67-6.4,17.38-9.61,26.06-.51,1.4-1.42,2.71-1.63,4.14-.42,2.78-.48,5.61-.73,8.94l-8.13-3.6c7.54-2.19,7.19-9,9.27-13.9,4.17-9.89,7.48-20.15,11.06-30.29a42.19,42.19,0,0,0,1.73-6.74c.71-4.07-1.15-6.93-5-8-4-1.15-7.3.26-8.7,4.45-3.85,11.47-7.56,23-11.35,34.46-1.2,3.62-2.18,7.36-3.91,10.72-.8,1.56-3.36,3.42-4.73,3.15s-3.31-2.78-3.59-4.54c-1.29-8.18-2.11-16.43-3.07-24.66-1.07-9.21-2.06-18.44-3.16-27.65-.48-3.94-2-7.26-6.69-7.08-3.36.14-6.3,4.24-5.93,8.6q1.94,22.77,4.27,45.5c.37,3.61,1.36,7.16,2.14,11.18l-8.43,1.66c6.13-3.7,3.43-9.06,3-14-.84-9.91-1.57-19.82-2.41-29.73-.27-3.3-.64-6.6-1.1-9.88-.43-3.09-1.18-6.14-5.26-5.89s-6.65,2.45-7.11,6.39a90.68,90.68,0,0,0-.24,11.43c.25,20.22.59,40.45.8,60.67.11,9.6-4.31,12.24-12.92,7.63-8.76-4.7-17.17-10.08-26.14-14.31-3.17-1.5-7.77-1.38-11.26-.4-4.71,1.33-4.79,3.71-1.17,7.08,6.41,6,13.34,11.49,19.13,18,8.12,9.15,15,19.38,23.14,28.53,7.41,8.36,7.69,18.32,8.37,28.38.21,3.14.23,6.3.38,9.44.18,3.84-.69,5.35-3.41,5.12a106.93,106.93,0,0,0,56.56-1.74C136.43,208.7,135.66,207.32,135.57,204.62Zm-23.5-35.06c2.85-17.12-3.43-29.51-19.07-37.35,4.66-1.05,11.83,2.63,16.79,8.69C117,149.65,116.91,159.31,112.07,169.56Z"/><path class="cls-2" d="M211.51,128.79c-7.95,39.33-32.57,65.37-69.82,79.71a6.5,6.5,0,0,1-3.83.57c-1.43-.37-2.2-1.75-2.29-4.45-.14-4.63-.9-9.26-.89-13.89,0-6.51,1.1-12.65,5.17-18.28,7.16-9.9,9.62-21.46,11.41-33.44,2.79-18.67,6.65-37.18,10.1-55.76.67-3.58,1.42-7.16,2.31-10.69.83-3.24.06-5.68-3.22-6.74-3.65-1.17-5.65,1-6.81,4.08-3.25,8.67-6.4,17.38-9.61,26.06-.51,1.4-1.42,2.71-1.63,4.14-.42,2.78-.48,5.61-.73,8.94l-8.13-3.6c7.54-2.19,7.19-9,9.27-13.9,4.17-9.89,7.48-20.15,11.06-30.29a42.19,42.19,0,0,0,1.73-6.74c.71-4.07-1.15-6.93-5-8-4-1.15-7.3.26-8.7,4.45-3.85,11.47-7.56,23-11.35,34.46-1.2,3.62-2.18,7.36-3.91,10.72-.8,1.56-3.36,3.42-4.73,3.15s-3.31-2.78-3.59-4.54c-1.29-8.18-2.11-16.43-3.07-24.66-1.07-9.21-2.06-18.44-3.16-27.65-.48-3.94-2-7.26-6.69-7.08-3.36.14-6.3,4.24-5.93,8.6q1.94,22.77,4.27,45.5c.37,3.61,1.36,7.16,2.14,11.18l-8.43,1.66c6.13-3.7,3.43-9.06,3-14-.84-9.91-1.57-19.82-2.41-29.73-.27-3.3-.64-6.6-1.1-9.88-.43-3.09-1.18-6.14-5.26-5.89s-6.65,2.45-7.11,6.39a90.68,90.68,0,0,0-.24,11.43c.25,20.22.59,40.45.8,60.67.11,9.6-4.31,12.24-12.92,7.63-8.76-4.7-17.17-10.08-26.14-14.31-3.17-1.5-7.77-1.38-11.26-.4-4.71,1.33-4.79,3.71-1.17,7.08,6.41,6,13.34,11.49,19.13,18,8.12,9.15,15,19.38,23.14,28.53,7.41,8.36,7.69,18.32,8.37,28.38.21,3.14.23,6.3.38,9.44.18,3.84-.69,5.35-3.41,5.12a12.94,12.94,0,0,1-2.53-.52c-1.28-.38-2.53-.79-3.78-1.21l-1-.3-.2-.07A106.42,106.42,0,0,1,36.24,27.4c38.61-35,98-36.92,138.15-3.17C206.94,51.61,219.94,87.07,211.51,128.79ZM93,132.21c15.64,7.84,21.92,20.23,19.07,37.35,4.84-10.25,4.88-19.91-2.28-28.66C104.83,134.84,97.66,131.16,93,132.21Z"/></g></g></svg>