<svg xmlns="http://www.w3.org/2000/svg" viewBox="0 0 209.2 214.61"><defs><style>.cls-1{fill:#6e6e6e;}</style></defs><g id="Capa_2" data-name="Capa 2"><g id="Capa_1-2" data-name="Capa 1"><path class="cls-1" d="M208.93,77.43c-.64-2.42-1-4-1.49-5.54C188.89,18.7,132.16-10.74,79.34,3.63,33.26,16.16,1.61,57.21.07,103.21-1,133.94,9.2,161,31.46,182.66,62.67,213,99.61,222.1,140.92,208.4c34.19-11.34,56.42-35.45,67.64-69.71.9-2.75,1.44-5.22-2.46-5.22-8.75,0-17.52,0-26.25.57-2.2.13-4.65,1.73-6.36,3.33-4.36,4.07-8.24,8.65-12.54,12.78-7,6.69-17.5,8-26.48,3.69,2.08-3.64,5.79-7.29,5.77-10.92,0-3.4-4-6.77-6.77-11,1.14-4.25-.61-7.46-6.44-8.54a38.43,38.43,0,0,0-9.88-.42c-22.82,1.69-45.6,3.73-68.43,5.2-6.55.43-13.23-.42-19.81-1.09-4.37-.45-5.93-3.88-6.23-7.83-.34-4.37,3.31-4,5.88-4.31,14.63-1.84,29.3-3.49,44-5.24,6.25-.75,12.56-1.26,18.7-2.56,1.92-.41,4-2.78,4.76-4.74.36-.89-1.89-3.54-3.49-4.38-4.83-2.53-10-4.43-14.91-6.82-12.37-6-24.72-12.07-37-18.3C35.52,70.32,33.77,66.29,35.8,62c.58-1.23,3.15-2.66,4.32-2.32,19.39,5.65,38.69,11.58,58,17.4,2.61.78,4,2,4.55,5,1.45,8,3.34,15.88,5.24,23.77,1.43,5.92,3.77,7,9.4,4.83a22,22,0,0,0,3.51-1.82c6.73-4.19,7.52-11,7.46-17.91,0-4.8,2.1-6.37,6.87-6.07-3.85,12.38-2.45,23,8.83,30.56,4.37,2.91,9.73,3.21,13.17.71-21.35-4.69-20.27-20.19-17.71-36.18-9.62-1.32-13.76,1.85-14.49,10.68-.19,2.31-.57,4.61-1,6.9-.68,4.2-3.42,6.69-7.15,8.24-2.75,1.14-4.72.87-5.47-2.65-1.29-6.16-3.2-12.21-4.18-18.4-.38-2.43.21-5.95,1.8-7.57a204.86,204.86,0,0,1,17.32-15.58c5.26-4.29,11.11-4.6,17.11-1.13,3.73,2.16,7.86,3.7,11.32,6.2,8.9,6.43,18.2,11.23,29.61,10.85C192.27,77.22,200.17,77.43,208.93,77.43Z"/><path class="cls-1" d="M208.93,77.43c-8.76,0-16.66-.21-24.54,0-11.41.38-20.71-4.42-29.61-10.85-3.46-2.5-7.59-4-11.32-6.2-6-3.47-11.85-3.16-17.11,1.13A204.86,204.86,0,0,0,109,77.14c-1.59,1.62-2.18,5.14-1.8,7.57,1,6.19,2.89,12.24,4.18,18.4.75,3.52,2.72,3.79,5.47,2.65,3.73-1.55,6.47-4,7.15-8.24.38-2.29.76-4.59,1-6.9.73-8.83,4.87-12,14.49-10.68-2.56,16-3.64,31.49,17.71,36.18-3.44,2.5-8.8,2.2-13.17-.71-11.28-7.53-12.68-18.18-8.83-30.56-4.77-.3-6.91,1.27-6.87,6.07.06,6.92-.73,13.72-7.46,17.91a22,22,0,0,1-3.51,1.82c-5.63,2.21-8,1.09-9.4-4.83C106,97.93,104.15,90,102.7,82.05c-.54-3-1.94-4.22-4.55-5-19.34-5.82-38.64-11.75-58-17.4C39,59.31,36.38,60.74,35.8,62c-2,4.32-.28,8.35,4.79,10.93,12.26,6.23,24.61,12.29,37,18.3,4.91,2.39,10.08,4.29,14.91,6.82,1.6.84,3.85,3.49,3.49,4.38-.79,2-2.84,4.33-4.76,4.74-6.14,1.3-12.45,1.81-18.7,2.56-14.65,1.75-29.32,3.4-43.95,5.24-2.57.32-6.22-.06-5.88,4.31.3,4,1.86,7.38,6.23,7.83,6.58.67,13.26,1.52,19.81,1.09,22.83-1.47,45.61-3.51,68.43-5.2a38.43,38.43,0,0,1,9.88.42c5.83,1.08,7.58,4.29,6.44,8.54,2.79,4.22,6.76,7.59,6.77,11,0,3.63-3.69,7.28-5.77,10.92,9,4.35,19.51,3,26.48-3.69,4.3-4.13,8.18-8.71,12.54-12.78,1.71-1.6,4.16-3.2,6.36-3.33,8.73-.53,17.5-.59,26.25-.57,3.9,0,3.36,2.47,2.46,5.22-11.22,34.26-33.45,58.37-67.64,69.71C99.61,222.1,62.67,213,31.46,182.66,9.2,161-1,133.94.07,103.21c1.54-46,33.19-87,79.27-99.58,52.82-14.37,109.55,15.07,128.1,68.26C208,73.41,208.29,75,208.93,77.43ZM119.7,125.56c-13.52,1.66-27.17,3.32-40.81,5-5.48.68-7.49,4.68-4.23,9.22,1.43,2,3.87,4.07,6.15,4.5,16.87,3.22,31.51-3.83,46-10.94,3.33-1.63,2.26-5.91-1.51-7.12A29.8,29.8,0,0,0,119.7,125.56Zm-11.78,37.12c2.53-.66,6.17-.76,8.77-2.45a141.48,141.48,0,0,0,16.83-12.95c1.47-1.32,2.5-5.46,1.59-6.6-1.42-1.78-4.61-2.55-7.16-2.9-1.58-.22-3.35,1.18-5.08,1.76q-13.58,4.54-27.17,9.06c-2.46.82-6.07.17-5.91,4.46.15,3.78,1.38,6.86,5.6,7.62C99.29,161.38,103.21,161.94,107.92,162.68Z"/><path class="cls-1" d="M119.7,125.56a29.8,29.8,0,0,1,5.55.67c3.77,1.21,4.84,5.49,1.51,7.12-14.44,7.11-29.08,14.16-45.95,10.94-2.28-.43-4.72-2.51-6.15-4.5-3.26-4.54-1.25-8.54,4.23-9.22C92.53,128.88,106.18,127.22,119.7,125.56Z"/><path class="cls-1" d="M107.92,162.68c-4.71-.74-8.63-1.3-12.53-2-4.22-.76-5.45-3.84-5.6-7.62-.16-4.29,3.45-3.64,5.91-4.46q13.59-4.54,27.17-9.06c1.73-.58,3.5-2,5.08-1.76,2.55.35,5.74,1.12,7.16,2.9.91,1.14-.12,5.28-1.59,6.6a141.48,141.48,0,0,1-16.83,12.95C114.09,161.92,110.45,162,107.92,162.68Z"/></g></g></svg>