<svg xmlns="http://www.w3.org/2000/svg" viewBox="0 0 212.93 214.61"><defs><style>.cls-1{fill:#fff;}.cls-2{fill:#6e6e6e;}</style></defs><g id="Capa_2" data-name="Capa 2"><g id="Capa_1-2" data-name="Capa 1"><path class="cls-1" d="M208.92,77.43a107.23,107.23,0,0,1,.17,57.49c-.28-.89-1.13-1.46-3-1.46-8.75,0-17.52,0-26.25.57-2.2.13-4.65,1.74-6.36,3.33-4.36,4.07-8.24,8.65-12.54,12.78-7,6.69-17.5,8-26.48,3.7,2.08-3.64,5.79-7.3,5.77-10.93,0-3.39-4-6.77-6.77-11,1.14-4.25-.61-7.46-6.44-8.54a38.88,38.88,0,0,0-9.88-.42c-22.82,1.7-45.6,3.73-68.43,5.21-6.55.42-13.23-.43-19.81-1.1-4.37-.45-5.93-3.88-6.23-7.82-.34-4.38,3.31-4,5.88-4.32,14.63-1.84,29.3-3.49,44-5.24,6.25-.74,12.56-1.26,18.7-2.56,1.92-.4,4-2.78,4.76-4.74.36-.88-1.89-3.54-3.49-4.38-4.83-2.53-10-4.42-14.91-6.81-12.37-6-24.72-12.08-37-18.31C35.52,70.31,33.77,66.28,35.8,62c.58-1.24,3.15-2.67,4.32-2.33,19.39,5.65,38.69,11.59,58,17.4,2.61.79,4,2,4.55,5,1.45,8,3.34,15.88,5.24,23.77,1.43,5.92,3.77,7,9.4,4.83a21.23,21.23,0,0,0,3.51-1.82c6.73-4.18,7.52-11,7.46-17.91,0-4.8,2.1-6.36,6.87-6.06-3.85,12.37-2.45,23,8.83,30.55,4.37,2.91,9.73,3.21,13.17.72-21.35-4.7-20.27-20.2-17.71-36.19-9.62-1.32-13.76,1.85-14.49,10.68-.19,2.31-.57,4.61-1,6.9-.68,4.2-3.42,6.69-7.15,8.24-2.75,1.15-4.72.88-5.47-2.65-1.29-6.16-3.2-12.2-4.17-18.4-.39-2.42.2-5.94,1.79-7.57a204.75,204.75,0,0,1,17.32-15.57c5.26-4.3,11.11-4.61,17.11-1.14,3.73,2.16,7.86,3.71,11.32,6.21,8.9,6.42,18.2,11.23,29.61,10.85C192.27,77.21,200.16,77.43,208.92,77.43ZM80.81,144.29c16.87,3.21,31.51-3.83,46-10.94,3.33-1.64,2.26-5.92-1.51-7.13a29,29,0,0,0-5.55-.66c-13.52,1.65-27.17,3.31-40.81,5-5.48.68-7.49,4.69-4.23,9.22C76.09,141.77,78.53,143.85,80.81,144.29Zm42.06-4.76c-9.05,3-18.11,6-27.17,9.06-2.46.82-6.07.17-5.91,4.46.15,3.79,1.38,6.86,5.6,7.62,3.9.71,7.82,1.26,12.53,2,2.53-.66,6.17-.77,8.76-2.46a139.75,139.75,0,0,0,16.84-12.95c1.47-1.32,2.5-5.46,1.59-6.59-1.42-1.79-4.61-2.55-7.16-2.91C126.37,137.55,124.6,139,122.87,139.53Z"/><path class="cls-2" d="M209.09,134.92c-.28-.89-1.13-1.46-3-1.46-8.75,0-17.52,0-26.25.57-2.2.13-4.65,1.74-6.36,3.33-4.36,4.07-8.24,8.65-12.54,12.78-7,6.69-17.5,8-26.48,3.7,2.08-3.64,5.79-7.3,5.77-10.93,0-3.39-4-6.77-6.77-11,1.14-4.25-.61-7.46-6.44-8.54a38.88,38.88,0,0,0-9.88-.42c-22.82,1.7-45.6,3.73-68.43,5.21-6.55.42-13.23-.43-19.81-1.1-4.37-.45-5.93-3.88-6.23-7.82-.34-4.38,3.31-4,5.88-4.32,14.63-1.84,29.3-3.49,44-5.24,6.25-.74,12.56-1.26,18.7-2.56,1.92-.4,4-2.78,4.76-4.74.36-.88-1.89-3.54-3.49-4.38-4.83-2.53-10-4.42-14.91-6.81-12.37-6-24.72-12.08-37-18.31C35.52,70.31,33.77,66.28,35.8,62c.58-1.24,3.15-2.67,4.32-2.33,19.39,5.65,38.69,11.59,58,17.4,2.61.79,4,2,4.55,5,1.45,8,3.34,15.88,5.24,23.77,1.43,5.92,3.77,7,9.4,4.83a21.23,21.23,0,0,0,3.51-1.82c6.73-4.18,7.52-11,7.46-17.91,0-4.8,2.1-6.36,6.87-6.06-3.85,12.37-2.45,23,8.83,30.55,4.37,2.91,9.73,3.21,13.17.72-21.35-4.7-20.27-20.2-17.71-36.19-9.62-1.32-13.76,1.85-14.49,10.68-.19,2.31-.57,4.61-1,6.9-.68,4.2-3.42,6.69-7.15,8.24-2.75,1.15-4.72.88-5.47-2.65-1.29-6.16-3.2-12.2-4.17-18.4-.39-2.42.2-5.94,1.79-7.57a204.75,204.75,0,0,1,17.32-15.57c5.26-4.3,11.11-4.61,17.11-1.14,3.73,2.16,7.86,3.71,11.32,6.21,8.9,6.42,18.2,11.23,29.61,10.85,7.88-.27,15.77,0,24.53,0h0c-.64-2.43-1-4-1.49-5.55A106.67,106.67,0,0,0,170.2,21.23l-.08-.06c-.54-.4-1.08-.8-1.63-1.19A107.93,107.93,0,0,0,134.91,3.91,104.6,104.6,0,0,0,85.12,2.23l-.09,0-1.25.27c-1.48.34-3,.7-4.44,1.1a107.61,107.61,0,0,0-77.18,82c-.12.61-.24,1.22-.35,1.84,0,.13-.05.26-.07.39A105.55,105.55,0,0,0,.07,103.2C-1,133.93,9.2,161,31.46,182.66,62.67,213,99.61,222.09,140.92,208.39c34.19-11.34,56.42-35.45,67.64-69.7A7,7,0,0,0,209.09,134.92Zm-74,5.76c.91,1.13-.12,5.27-1.59,6.59a139.75,139.75,0,0,1-16.84,12.95c-2.59,1.69-6.23,1.8-8.76,2.46-4.71-.75-8.63-1.3-12.53-2-4.22-.76-5.45-3.83-5.6-7.62-.16-4.29,3.45-3.64,5.91-4.46,9.06-3,18.12-6,27.17-9.06,1.73-.57,3.5-2,5.08-1.76C130.5,138.13,133.69,138.89,135.11,140.68ZM78.89,130.56c13.64-1.69,27.29-3.35,40.81-5a29,29,0,0,1,5.55.66c3.77,1.21,4.84,5.49,1.51,7.13-14.44,7.11-29.08,14.15-45.95,10.94-2.28-.44-4.72-2.52-6.15-4.51C71.4,135.25,73.41,131.24,78.89,130.56Z"/></g></g></svg>